Simulation
nRows=37
nColumns=15
endheader
time  TH_x TH_y TH_z SC_y  SC_z  SC_x  AC_y  AC_z  AC_x  GH_y  GH_z  GH_yy  EL_x  PS_y
0.0  0.000000  0.000000  0.000000  -32.83841541127666  4.380265946905369  18.22362646235341  67.84588840480617  3.985712828012986  -4.609215186246079  44.491015470446634  48.016946367681655  -54.882273185696015  24.14331050594489  0.000000
0.023  0.000000  0.000000  0.000000  -32.63878854973189  5.273615095904598  18.95414073481686  68.20929894687049  5.019591154671614  -3.763908497308806  44.47592728147336  49.88126720502949  -54.81016020291733  24.7054454381631  0.000000
0.046  0.000000  0.000000  0.000000  -32.90393656764413  6.153868720523696  19.250986108804995  68.4306398684026  5.4591799770759595  -2.7671164432863606  44.65824855344184  51.37828248015813  -54.84214631533621  25.186248287404972  0.000000
0.069  0.000000  0.000000  0.000000  -33.45148891167173  6.714386616557318  19.477286305793417  68.66840341569646  5.36830485032054  -1.9988933660955543  44.96634262003703  52.49694217610469  -55.08551080722692  25.548027550434593  0.000000
0.092  0.000000  0.000000  0.000000  -33.94589071640619  7.067292714515439  19.709629943475313  68.86765847649126  5.018393848584774  -1.539145796822734  45.28892710015687  53.18947288310688  -55.437835856882344  25.79020052194857  0.000000
0.11499999999999999  0.000000  0.000000  0.000000  -34.318681147757296  7.2739955666436975  19.85198571713635  68.99030489960185  4.658693470820531  -1.2251406740285273  45.5867523623338  53.50884615116809  -55.83899883871455  25.915874028734798  0.000000
0.138  0.000000  0.000000  0.000000  -34.61007666613967  7.382541885689293  19.869365889230036  69.08725686510213  4.377655191636384  -1.021881065765071  45.87577098951375  53.59788786378184  -56.35825494399327  25.977803715942184  0.000000
0.161  0.000000  0.000000  0.000000  -34.84858201095161  7.414862931416143  19.800011630835282  69.1457747475429  4.169279638753985  -0.8768828598339071  46.18982351171666  53.52568449259254  -56.95671201330865  25.99122841539778  0.000000
0.184  0.000000  0.000000  0.000000  -35.01578571798805  7.405921085154063  19.661620666260365  69.16759105553838  4.010750946390065  -0.7898279759392894  46.5187467295629  53.37202492252394  -57.6560280104263  25.970192480560026  0.000000
0.207  0.000000  0.000000  0.000000  -35.13299699158423  7.379600338836962  19.48391154999489  69.15443772289446  3.9007651541395547  -0.7347527602379809  46.878624981412806  53.154349530413384  -58.4090679878731  25.92448445675665  0.000000
0.22999999999999998  0.000000  0.000000  0.000000  -35.20060541210999  7.343376304490632  19.2684495858674  69.11037786613088  3.822645348743201  -0.7018593301287728  47.26129008768118  52.90984154049821  -59.218259363315745  25.868981204263857  0.000000
0.253  0.000000  0.000000  0.000000  -35.23102743451859  7.300104226260526  19.0345998497905  69.05072861073774  3.7744904841064257  -0.6887334837161866  47.67114216785176  52.647102042774826  -60.06323328083836  25.800833765626827  0.000000
0.276  0.000000  0.000000  0.000000  -35.2243865439704  7.253396363975891  18.785153088781097  68.97359437760201  3.739324110414868  -0.683105575706158  48.10226749922939  52.37629694210804  -60.93143882785876  25.729958463829494  0.000000
0.299  0.000000  0.000000  0.000000  -35.18966563409893  7.205170858652335  18.528960999657556  68.89508591130446  3.7152624571132415  -0.6855851934917161  48.554625131296035  52.1002403938017  -61.814993907274655  25.65493425888409  0.000000
0.322  0.000000  0.000000  0.000000  -35.1298611278016  7.157237662192061  18.26911033009873  68.81210879924603  3.6894766901049354  -0.6840789800079179  49.026298042510525  51.8174775860758  -62.69781742205419  25.583402492428295  0.000000
0.345  0.000000  0.000000  0.000000  -35.05115366875595  7.10969678100565  18.010037226829866  68.7385921911232  3.660244812268929  -0.6814146235155644  49.51528599130387  51.53028172599694  -63.57784555578102  25.51526978370153  0.000000
0.368  0.000000  0.000000  0.000000  -34.95621875865527  7.063034261224741  17.75451919884233  68.67128160034686  3.6198899795590616  -0.6685726112530083  50.02111560445372  51.2343134056217  -64.4402970585638  25.455570380354953  0.000000
0.391  0.000000  0.000000  0.000000  -34.84901891685969  7.016827857914307  17.505058830426552  68.62058385626194  3.566810769818585  -0.6487806789078132  50.54027877508173  50.93283706774744  -65.28461058379919  25.404935631193087  0.000000
0.414  0.000000  0.000000  0.000000  -34.732146817353794  6.971040555875529  17.264024540731906  68.58348988707648  3.4967546910817187  -0.6159678485375841  51.07208307695717  50.6226417453966  -66.0984505262176  25.366538495033364  0.000000
0.437  0.000000  0.000000  0.000000  -34.60895470672307  6.925634497026337  17.03264049003097  68.56714926184459  3.408386916232853  -0.5723479264264877  51.61127621861291  50.308254468077465  -66.8798552623749  25.34126710738516  0.000000
0.45999999999999996  0.000000  0.000000  0.000000  -34.48127310394951  6.878985316101616  16.81265696260621  68.56891251587662  3.2995409936556808  -0.515474841479214  52.15428281731959  49.98964393378918  -67.6178319672708  25.330316484040303  0.000000
0.483  0.000000  0.000000  0.000000  -34.34943261601467  6.831614289663626  16.609330903510003  68.59061509275902  3.1664556504843295  -0.4501215961686033  52.69614912383178  49.671392144898064  -68.30831852454017  25.33467333272645  0.000000
0.506  0.000000  0.000000  0.000000  -34.2140305918009  6.782851496660411  16.424374572848958  68.63061438841707  3.009236423079968  -0.37560515062195265  53.23612395913847  49.353295159934625  -68.94857413220785  25.354847448459804  0.000000
0.529  0.000000  0.000000  0.000000  -34.0787422085289  6.731890917643902  16.2520958204211  68.69387015561371  2.8355616662882626  -0.28783687039742417  53.773579419508664  49.03516026387351  -69.54346245249694  25.391386627437598  0.000000
0.552  0.000000  0.000000  0.000000  -33.94258866111564  6.680475789238941  16.09213137400716  68.778116647393  2.648404072289972  -0.18663697832776277  54.311072839398754  48.715358176249204  -70.09395504027827  25.445198921304343  0.000000
0.575  0.000000  0.000000  0.000000  -33.80625974258264  6.628431558203741  15.94549941957472  68.88324216028134  2.4490744020224913  -0.07270447279870422  54.84858117226115  48.394164448279405  -70.60205371035443  25.516237745075458  0.000000
0.598  0.000000  0.000000  0.000000  -33.66916382245758  6.575553234498924  15.811345572089488  69.00666620534626  2.2396947231608912  0.05226653624748588  55.38557887333978  48.07257733545764  -71.06895836362912  25.60380474932258  0.000000
0.621  0.000000  0.000000  0.000000  -33.53299545760567  6.522017739934229  15.689367603014476  69.14820172712616  2.022898167986084  0.18790989957406962  55.91966643524861  47.751111147740524  -71.49542439242838  25.70734127768975  0.000000
0.644  0.000000  0.000000  0.000000  -33.397561125808636  6.4677531165320135  15.577724426040048  69.30472404287006  1.80137573225694  0.33359269484941534  56.44900347819056  47.430309805245884  -71.88228549449713  25.825878609734783  0.000000
0.667  0.000000  0.000000  0.000000  -33.26441276962667  6.413311631603451  15.476880895618887  69.47652773909844  1.5763357998889624  0.4883430776732429  56.97236162768656  47.11129009716939  -72.23083443927533  25.958161046171877  0.000000
0.69  0.000000  0.000000  0.000000  -33.13292298550322  6.358803268185912  15.38646890205321  69.66016293024876  1.3478012458582447  0.6509828102141012  57.49003902828095  46.7952039747845  -72.54385214761876  26.10309591495728  0.000000
0.713  0.000000  0.000000  0.000000  -33.0042738089216  6.304809020967427  15.306570579573812  69.8557274961423  1.1170873668771268  0.8206842579846048  58.000923415264836  46.483140169262  -72.82372748733722  26.259538811164028  0.000000
0.736  0.000000  0.000000  0.000000  -32.8782807244519  6.251713663257852  15.236391094656664  70.05992016830155  0.8849838826918787  0.996743544238979  58.50440905792105  46.1759948729076  -73.0729911564897  26.426228129201107  0.000000
0.759  0.000000  0.000000  0.000000  -32.75684367646961  6.200048538262954  15.176346329617003  70.27328201259171  0.6528052222470929  1.1785437578412492  58.99825012498312  45.87464999176953  -73.29358618182499  26.60167478653521  0.000000
0.782  0.000000  0.000000  0.000000  -32.63979206039363  6.15045815194192  15.126966265983864  70.4924951922312  0.4207748462206944  1.3648841518071242  59.48125419874051  45.57971114875374  -73.48771430052551  26.78391260747239  0.000000
0.8049999999999999  0.000000  0.000000  0.000000  -32.52861198079562  6.103579919613754  15.090357202905842  70.71739927224668  0.18837022502432688  1.5542337796163583  59.95113973434035  45.29218681642584  -73.65717678071815  26.971265592631323  0.000000
0.828  0.000000  0.000000  0.000000  -32.42322200331  6.059513017800835  15.06515331566783  70.94496146500231  -0.04289400751228544  1.7455764054556697  60.406886327913504  45.012814790277524  -73.80399999368727  27.16187814852885  0.000000
